<svg id="Layer_1" data-name="Layer 1" xmlns="http://www.w3.org/2000/svg" viewBox="0 0 512 512"><defs><style>.cls-1{fill:#fff;}.cls-2{fill:#67cabdee;}.cls-3{fill:#67cabdee;}.cls-4{fill:#67cabdee;}</style></defs><title>printer-filled</title><path class="cls-1" d="M422.4,128V64a51.26,51.26,0,0,0-51.2-51.2H140.8A51.26,51.26,0,0,0,89.6,64v64Z"/><rect class="cls-2" x="12.8" y="128" width="486.4" height="281.6" rx="51.2" ry="51.2"/><path class="cls-1" d="M364.43,350.49H147.57a60.24,60.24,0,0,0-60.24,60.24V477a30.12,30.12,0,0,0,30.12,30.12h277.1A30.12,30.12,0,0,0,424.67,477V410.73A60.24,60.24,0,0,0,364.43,350.49Z"/><path class="cls-3" d="M396.8,230.4a25.6,25.6,0,1,1,25.6-25.6A25.63,25.63,0,0,1,396.8,230.4Z"/><path class="cls-4" d="M294.4,192H89.6a12.8,12.8,0,1,0,0,25.6H294.4a12.8,12.8,0,1,0,0-25.6Z"/><path class="cls-4" d="M396.8,166.4a38.4,38.4,0,1,0,38.4,38.4A38.4,38.4,0,0,0,396.8,166.4Zm0,51.2a12.8,12.8,0,1,1,12.8-12.8A12.81,12.81,0,0,1,396.8,217.6Z"/><path class="cls-4" d="M448,115.2H435.2V64a64,64,0,0,0-64-64H140.8a64,64,0,0,0-64,64v51.2H64a64,64,0,0,0-64,64V358.4a64,64,0,0,0,64,64H76.8V480a32,32,0,0,0,32,32H403.2a32,32,0,0,0,32-32V422.4H448a64,64,0,0,0,64-64V179.2A64,64,0,0,0,448,115.2ZM102.4,64a38.44,38.44,0,0,1,38.4-38.4H371.2A38.44,38.44,0,0,1,409.6,64v51.2H102.4ZM409.6,416v64a6.41,6.41,0,0,1-6.4,6.4H108.8a6.41,6.41,0,0,1-6.4-6.4V409.6a38.44,38.44,0,0,1,38.4-38.4H371.2a38.44,38.44,0,0,1,38.4,38.4Zm76.8-57.6A38.44,38.44,0,0,1,448,396.8H433.92a64,64,0,0,0-62.72-51.2H140.8a64,64,0,0,0-62.72,51.2H64a38.44,38.44,0,0,1-38.4-38.4V179.2A38.44,38.44,0,0,1,64,140.8H448a38.44,38.44,0,0,1,38.4,38.4Z"/></svg>