<?xml version="1.0" encoding="utf-8"?>
<!-- Generator: Adobe Illustrator 23.0.2, SVG Export Plug-In . SVG Version: 6.00 Build 0)  -->
<svg version="1.1" id="Capa_1" xmlns="http://www.w3.org/2000/svg" xmlns:xlink="http://www.w3.org/1999/xlink" x="0px" y="0px"
	 viewBox="0 0 512 512" style="enable-background:new 0 0 512 512;" xml:space="preserve">
<style type="text/css">
	.st0{fill:#67cabdee;}
</style>
<g>
	<path class="st0" d="M241,369.5c-4.1,0-7.5,3.4-7.5,7.5s3.4,7.5,7.5,7.5h30c4.1,0,7.5-3.4,7.5-7.5s-3.4-7.5-7.5-7.5H241z"/>
	<path class="st0" d="M492.2,83.8h-64.7V15.6c0-8.6-7-15.6-15.7-15.6H100.2c-8.6,0-15.6,7-15.6,15.6v68.2H19.8
		C9,83.8,0.2,92.6,0.2,103.5v290.4c0,10.8,8.8,19.6,19.6,19.6h161.3v25c0,0,0,0.1,0,0.1c0.4,24.8-10.9,49.4-15.6,58.4h-23.8
		c-4.1,0-7.5,3.4-7.5,7.5c0,4.1,3.4,7.5,7.5,7.5h228.4c4.1,0,7.5-3.4,7.5-7.5c0-4.1-3.4-7.5-7.5-7.5h-23.8
		c-4.7-9.1-16-33.6-15.6-58.4c0,0,0-0.1,0-0.1v-25h58.3c4.1,0,7.5-3.4,7.5-7.5c0-4.1-3.4-7.5-7.5-7.5H19.8c-2.6,0-4.6-2.1-4.6-4.6
		v-38.3h481.6v38.3c0,2.6-2.1,4.6-4.6,4.6h-68c-4.1,0-7.5,3.4-7.5,7.5c0,4.1,3.4,7.5,7.5,7.5h68c10.8,0,19.6-8.8,19.6-19.6V103.5
		C511.8,92.6,503,83.8,492.2,83.8L492.2,83.8z M196.2,438.4v-24.9h119.6v24.9c-0.4,23.3,7.9,45.7,13.9,58.6H182.3
		C188.3,484.1,196.6,461.7,196.2,438.4z M38.9,138.2v202.3H15.2v-237c0-2.6,2.1-4.6,4.6-4.6h64.7v20.7H57
		C47,119.5,38.9,127.9,38.9,138.2z M412.4,340.5H99.6v-58.3c0-4.1-3.4-7.5-7.5-7.5c-4.1,0-7.5,3.4-7.5,7.5v58.3H53.9V138.2
		c0-2,1.4-3.6,3.1-3.6h27.6v112.7c0,4.1,3.4,7.5,7.5,7.5c4.1,0,7.5-3.4,7.5-7.5V15.6c0-0.4,0.3-0.7,0.7-0.7h311.5
		c0.4,0,0.7,0.3,0.7,0.7L412.4,340.5L412.4,340.5z M458.1,340.5h-30.7v-206H455c1.7,0,3.1,1.6,3.1,3.6V340.5z M496.8,340.5h-23.7
		V138.2c0-10.3-8.1-18.6-18.1-18.6h-27.6V98.8h64.7c2.6,0,4.6,2.1,4.6,4.6L496.8,340.5z"/>
	<path class="st0" d="M149.3,194c9.5,6.1,20.2,9.2,31.9,9.2c9.9,0,19.2-2.2,27.6-6.4c21-10.6,32.5-28.2,32.5-49.7V78.6
		c0-13.8-11.2-25-25-25s-25,11.2-25,25V147c0,1.2,0,2.5-5,5.1c-1.5,0.7-3.1,1.1-5.2,1.1c-2,0-3.5-0.4-5-1.3
		c-4.1-2.6-4.1-3.4-4.1-4.8V78.6c0-13.8-11.2-25-25-25c-13.8,0-25,11.2-25,25v68.6C122.2,166.4,131.5,182.6,149.3,194L149.3,194z
		 M137.1,78.6c0-5.5,4.5-10,10-10c5.5,0,10,4.5,10,10v68.6c0,7.4,3.2,12.4,11,17.4c3.8,2.4,8.2,3.7,13,3.7c4.4,0,8.3-0.9,11.9-2.7
		c11.9-6,13.3-13.4,13.3-18.5V78.6c0-5.5,4.5-10,10-10c5.5,0,10,4.5,10,10V147c0,15.7-8.4,28.3-24.3,36.3c-6.4,3.2-13.4,4.8-21,4.8
		c-8.7,0-16.7-2.3-23.7-6.8c-13.6-8.7-20.2-19.9-20.2-34.2L137.1,78.6L137.1,78.6z"/>
	<path class="st0" d="M384.8,163.8l-29.6-39l24-31.9c4-5.3,5.7-11.9,4.8-18.5c-0.9-6.6-4.4-12.5-9.7-16.5c-5.3-4-11.9-5.7-18.5-4.8
		c-6.6,0.9-12.5,4.4-16.5,9.7l-15.5,20.6l-15.7-20.7c-8.3-11-24-13.1-35-4.8c-11,8.3-13.1,24-4.8,35l24.2,31.9l-28,37.2
		c-4,5.3-5.7,11.9-4.8,18.5c0.9,6.6,4.4,12.5,9.7,16.5c4.4,3.3,9.6,5,15,5c7.9,0,15.2-3.6,20-9.9l19.5-25.9L345,194
		c4.8,6.3,12,9.9,19.9,9.9c5.5,0,10.7-1.8,15.1-5.1c5.3-4,8.7-9.9,9.6-16.5C390.5,175.7,388.8,169.1,384.8,163.8L384.8,163.8z
		 M370.9,186.8c-1.8,1.3-3.8,2-6,2c-3.2,0-6.1-1.4-8-3.9l-27-35.6c-1.4-1.9-3.6-3-6-3c0,0,0,0,0,0c-2.3,0-4.6,1.1-6,3l-25.5,33.8
		c-1.9,2.5-4.8,4-8,4c-2.2,0-4.2-0.7-6-2c-2.1-1.6-3.5-3.9-3.9-6.6c-0.4-2.6,0.3-5.3,1.9-7.4l31.5-41.7c2-2.7,2-6.4,0-9l-27.7-36.4
		c-3.3-4.4-2.5-10.7,1.9-14c4.4-3.3,10.7-2.5,14,1.9l21.7,28.6c1.4,1.9,3.6,3,6,3h0c2.3,0,4.6-1.1,6-3l21.5-28.5
		c1.6-2.1,3.9-3.5,6.6-3.9c2.6-0.4,5.3,0.3,7.4,1.9c2.1,1.6,3.5,3.9,3.9,6.6c0.4,2.6-0.3,5.3-1.9,7.4l-27.5,36.4c-2,2.7-2,6.4,0,9
		l33,43.5C376.1,177.2,375.3,183.5,370.9,186.8L370.9,186.8z"/>
	<path class="st0" d="M382.3,226.7H129.7c-4.1,0-7.5,3.4-7.5,7.5s3.4,7.5,7.5,7.5h252.7c4.1,0,7.5-3.4,7.5-7.5
		S386.5,226.7,382.3,226.7z"/>
	<path class="st0" d="M382.3,257.2H129.7c-4.1,0-7.5,3.4-7.5,7.5c0,4.1,3.4,7.5,7.5,7.5h252.7c4.1,0,7.5-3.4,7.5-7.5
		C389.8,260.5,386.5,257.2,382.3,257.2z"/>
	<path class="st0" d="M382.3,287.6H129.7c-4.1,0-7.5,3.4-7.5,7.5c0,4.1,3.4,7.5,7.5,7.5h252.7c4.1,0,7.5-3.4,7.5-7.5
		C389.8,291,386.5,287.6,382.3,287.6z"/>
</g>
</svg>
