<?xml version="1.0" encoding="utf-8"?>
<!-- Generator: Adobe Illustrator 23.0.2, SVG Export Plug-In . SVG Version: 6.00 Build 0)  -->
<svg version="1.1" id="Capa_1" xmlns="http://www.w3.org/2000/svg" xmlns:xlink="http://www.w3.org/1999/xlink" x="0px" y="0px"
	 viewBox="0 0 496 496" style="enable-background:new 0 0 496 496;" xml:space="preserve">
<style type="text/css">
	.st0{fill:#67cabdee;}
</style>
<g>
	<g>
		<g>
			<path class="st0" d="M0,408c0,22.1,17.9,40,40,40h120v32h-32v16h240v-16h-32v-32h120c22.1,0,40-17.9,40-40v-24H0V408z M320,480
				H176v-32h144V480z M16,400h464v8c0,13.2-10.8,24-24,24H40c-13.2,0-24-10.8-24-24V400z"/>
			<path class="st0" d="M456,72h-24v16h24c13.2,0,24,10.8,24,24v256h16V112C496,89.9,478.1,72,456,72z"/>
			<path class="st0" d="M16,112c0-13.2,10.8-24,24-24h24V72H40C17.9,72,0,89.9,0,112v256h16V112z"/>
			<path class="st0" d="M416,0H80v368h336V0z M400,352H96V16h304V352z"/>
			<polygon class="st0" points="128,48 384,48 384,32 112,32 112,144 128,144 			"/>
			<polygon class="st0" points="384,64 368,64 368,160 112,160 112,176 384,176 			"/>
			<path class="st0" d="M288,80c12.9,0,25,5.7,33.2,15.6l24.6,29.6l12.3-10.2l-24.6-29.6C322.2,71.8,305.6,64,288,64
				s-34.2,7.8-45.5,21.3l-7.2,8.6c-8.5-3.9-17.7-6-27.3-6c-17.6,0-34.2,6.9-46.6,19.3l-23,23l11.3,11.3l23-23
				c9.4-9.4,22-14.6,35.3-14.6s25.9,5.2,35.3,14.6l23,23l11.3-11.3l-23-23c-1.8-1.8-3.6-3.4-5.5-4.9l5.7-6.8
				C263,85.7,275.1,80,288,80z"/>
			<path class="st0" d="M240,192H112v144h128V192z M224,320h-96V208h96V320z"/>
			<rect x="256" y="192" class="st0" width="16" height="16"/>
			<rect x="288" y="192" class="st0" width="96" height="16"/>
			<rect x="368" y="320" class="st0" width="16" height="16"/>
			<rect x="256" y="320" class="st0" width="96" height="16"/>
			<rect x="256" y="288" class="st0" width="128" height="16"/>
			<rect x="256" y="256" class="st0" width="128" height="16"/>
			<rect x="256" y="224" class="st0" width="128" height="16"/>
		</g>
	</g>
</g>
</svg>
